REM DIRINDEX 1\2,1\3,1\4,1\5,1\6
REM DIRNAME folder01,folder02,folder03,folder04,folder05,folder06
TITLE ""
FILE "DISC2Track09.mp3" MP3
  TRACK 01 AUDIO
    TITLE "0:"
    INDEX 01 00:00:00
  TRACK 02 AUDIO
    TITLE "3:cjc129_1182"
    INDEX 01 00:00:05
  TRACK 03 AUDIO
    TITLE "0:"
    INDEX 01 00:01:36
  TRACK 04 AUDIO
    TITLE "5:cjc129_1183"
    INDEX 01 00:01:62
  TRACK 05 AUDIO
    TITLE "0:"
    INDEX 01 00:04:48
  TRACK 06 AUDIO
    TITLE "4:cjc129_1184"
    INDEX 01 00:05:40
  TRACK 07 AUDIO
    TITLE "0:"
    INDEX 01 00:06:65
  TRACK 08 AUDIO
    TITLE "6:cjc129_1185"
    INDEX 01 00:07:21
  TRACK 09 AUDIO
    TITLE "0:"
    INDEX 01 00:11:25
  TRACK 10 AUDIO
    TITLE "3:cjc129_1186"
    INDEX 01 00:12:73
  TRACK 11 AUDIO
    TITLE "0:"
    INDEX 01 00:14:49
  TRACK 12 AUDIO
    TITLE "5:cjc129_1187"
    INDEX 01 00:15:07
  TRACK 13 AUDIO
    TITLE "0:"
    INDEX 01 00:19:36
  TRACK 14 AUDIO
    TITLE "4:cjc129_1188"
    INDEX 01 00:20:28
  TRACK 15 AUDIO
    TITLE "0:"
    INDEX 01 00:22:05
  TRACK 16 AUDIO
    TITLE "6:cjc129_1189"
    INDEX 01 00:22:34
  TRACK 17 AUDIO
    TITLE "0:"
    INDEX 01 00:26:71
  TRACK 18 AUDIO
    TITLE "3:cjc129_1190"
    INDEX 01 00:28:47
  TRACK 19 AUDIO
    TITLE "0:"
    INDEX 01 00:30:59
  TRACK 20 AUDIO
    TITLE "5:cjc129_1191"
    INDEX 01 00:31:16
  TRACK 21 AUDIO
    TITLE "0:"
    INDEX 01 00:33:24
  TRACK 22 AUDIO
    TITLE "4:cjc129_1192"
    INDEX 01 00:34:14
  TRACK 23 AUDIO
    TITLE "0:"
    INDEX 01 00:36:25
  TRACK 24 AUDIO
    TITLE "6:cjc129_1193"
    INDEX 01 00:36:58
  TRACK 25 AUDIO
    TITLE "0:"
    INDEX 01 00:40:60
  TRACK 26 AUDIO
    TITLE "3:cjc129_1194"
    INDEX 01 00:42:37
  TRACK 27 AUDIO
    TITLE "0:"
    INDEX 01 00:44:32
  TRACK 28 AUDIO
    TITLE "5:cjc129_1195"
    INDEX 01 00:44:61
  TRACK 29 AUDIO
    TITLE "0:"
    INDEX 01 00:49:59
  TRACK 30 AUDIO
    TITLE "4:cjc129_1196"
    INDEX 01 00:50:50
  TRACK 31 AUDIO
    TITLE "0:"
    INDEX 01 00:52:45
  TRACK 32 AUDIO
    TITLE "6:cjc129_1197"
    INDEX 01 00:53:00
  TRACK 33 AUDIO
    TITLE "0:"
    INDEX 01 00:57:33
  TRACK 34 AUDIO
    TITLE "3:cjc129_1198"
    INDEX 01 00:59:10
  TRACK 35 AUDIO
    TITLE "0:"
    INDEX 01 01:00:35
  TRACK 36 AUDIO
    TITLE "5:cjc129_1199"
    INDEX 01 01:00:64
  TRACK 37 AUDIO
    TITLE "0:"
    INDEX 01 01:07:02
  TRACK 38 AUDIO
    TITLE "4:cjc129_1200"
    INDEX 01 01:07:68
  TRACK 39 AUDIO
    TITLE "0:"
    INDEX 01 01:09:18
  TRACK 40 AUDIO
    TITLE "6:cjc129_1201"
    INDEX 01 01:09:48
  TRACK 41 AUDIO
    TITLE "0:"
    INDEX 01 01:14:14
  TRACK 42 AUDIO
    TITLE "3:cjc129_1202"
    INDEX 01 01:15:66
  TRACK 43 AUDIO
    TITLE "0:"
    INDEX 01 01:17:18
  TRACK 44 AUDIO
    TITLE "5:cjc129_1203"
    INDEX 01 01:17:49
  TRACK 45 AUDIO
    TITLE "0:"
    INDEX 01 01:23:67
  TRACK 46 AUDIO
    TITLE "4:cjc129_1204"
    INDEX 01 01:24:57
  TRACK 47 AUDIO
    TITLE "0:"
    INDEX 01 01:26:09
  TRACK 48 AUDIO
    TITLE "6:cjc129_1205"
    INDEX 01 01:26:40
  TRACK 49 AUDIO
    TITLE "0:"
    INDEX 01 01:30:50
  TRACK 50 AUDIO
    TITLE "3:cjc129_1206"
    INDEX 01 01:32:23
  TRACK 51 AUDIO
    TITLE "0:"
    INDEX 01 01:33:48
  TRACK 52 AUDIO
    TITLE "5:cjc129_1207"
    INDEX 01 01:34:01
  TRACK 53 AUDIO
    TITLE "0:"
    INDEX 01 01:36:19
  TRACK 54 AUDIO
    TITLE "4:cjc129_1208"
    INDEX 01 01:37:09
  TRACK 55 AUDIO
    TITLE "0:"
    INDEX 01 01:38:28
  TRACK 56 AUDIO
    TITLE "6:cjc129_1209"
    INDEX 01 01:38:61
  TRACK 57 AUDIO
    TITLE "0:"
    INDEX 01 01:43:09
  TRACK 58 AUDIO
    TITLE "3:cjc129_1210"
    INDEX 01 01:44:60
  TRACK 59 AUDIO
    TITLE "0:"
    INDEX 01 01:46:06
  TRACK 60 AUDIO
    TITLE "5:cjc129_1211"
    INDEX 01 01:46:41
  TRACK 61 AUDIO
    TITLE "0:"
    INDEX 01 01:48:58
  TRACK 62 AUDIO
    TITLE "4:cjc129_1212"
    INDEX 01 01:49:49
  TRACK 63 AUDIO
    TITLE "0:"
    INDEX 01 01:50:72
  TRACK 64 AUDIO
    TITLE "6:cjc129_1213"
    INDEX 01 01:51:28
  TRACK 65 AUDIO
    TITLE "0:"
    INDEX 01 01:55:67
